<svg data-name="Layer 1" viewBox="0 0 614.247 528.65"><path fill="#f0f0f0" d="M196.188 72.997C191.251 46.57 199.024 16.506 220.631.51a123.863 123.863 0 0025.822 81.026c6.935 8.889 15.575 18.054 15.306 29.326-.166 7.013-3.96 13.547-8.958 18.47-4.999 4.922-11.156 8.47-17.24 11.964l-.947 1.473c-17.835-20.116-33.488-43.346-38.426-69.772z"/><path fill="#fff" d="M221.025.914a105.87 105.87 0 00-6.99 64.761 45.591 45.591 0 004.828 13.445 26.149 26.149 0 009.879 9.581c3.77 2.179 7.88 3.97 11.055 7.028a16.01 16.01 0 014.713 12.217c-.152 5.622-2.315 10.855-4.609 15.898-2.546 5.6-5.28 11.377-5.114 17.672.02.763-1.165.75-1.185-.012-.287-10.954 7.632-19.75 9.396-30.261.824-4.905.174-10.087-3.274-13.889-3.015-3.324-7.251-5.176-11.088-7.349a27.902 27.902 0 01-10.008-9.008 42.148 42.148 0 01-5.327-13.21 102.712 102.712 0 01-2.328-32.017A107.747 107.747 0 01220.008.305c.31-.694 1.325-.08 1.017.61z"/><path fill="#fff" d="M212.163 58.747a15.884 15.884 0 01-16.572-12.184c-.173-.742.973-1.046 1.146-.303a14.708 14.708 0 0015.438 11.302c.76-.057.744 1.128-.012 1.185zm14.521 29.101a30.615 30.615 0 007.674-20.95c-.017-.763 1.167-.75 1.185.013a31.844 31.844 0 01-8.03 21.784c-.507.57-1.334-.28-.829-.847zM213.33 24.256a8.991 8.991 0 007.987-3c.5-.576 1.326.274.829.847a10.075 10.075 0 01-8.829 3.337.612.612 0 01-.586-.598.595.595 0 01.599-.586z"/><path fill="#f0f0f0" d="M308.99 22.369c-.302.369-.604.738-.904 1.117a118.406 118.406 0 00-10.837 15.858c-.252.427-.502.863-.741 1.296a124.827 124.827 0 00-14.565 43.589 121.222 121.222 0 00-1.112 18.385c.134 8.49.954 17.685-1.648 25.493a20.796 20.796 0 01-.937 2.398l-41.762 13.305c-.11-.017-.217-.025-.328-.042l-1.643.608c-.027-.317-.048-.646-.075-.963-.017-.184-.024-.37-.04-.554-.009-.123-.016-.247-.03-.358a1.656 1.656 0 01-.006-.114c-.014-.11-.015-.215-.027-.316-.124-1.84-.239-3.681-.334-5.53-.003-.01-.003-.01.003-.022-.717-14.076-.265-28.337 2.338-42.075.078-.413.153-.836.25-1.255a115.675 115.675 0 015.116-18.17 102.26 102.26 0 014.124-9.49 85.037 85.037 0 0115.436-21.648c12.459-12.68 28.834-21.235 46.381-21.505.449-.006.889-.01 1.34-.007z"/><path fill="#fff" d="M309.065 22.929a105.87 105.87 0 00-44.571 47.5 45.59 45.59 0 00-4.24 13.64 26.149 26.149 0 002.119 13.599c1.698 4.01 3.9 7.914 4.595 12.267a16.01 16.01 0 01-3.592 12.592c-3.506 4.398-8.384 7.273-13.252 9.92-5.404 2.938-11.064 5.904-14.723 11.03-.443.621-1.381-.103-.939-.723 6.366-8.919 17.985-11.175 25.722-18.505 3.61-3.42 6.212-7.949 5.748-13.06-.406-4.47-2.674-8.498-4.429-12.543a27.902 27.902 0 01-2.567-13.219 42.148 42.148 0 013.7-13.753 102.712 102.712 0 0117.418-26.966A107.747 107.747 0 01308.62 21.83c.665-.367 1.107.734.445 1.099z"/><path fill="#fff" d="M267.17 63.77a15.884 15.884 0 01-5.896-19.706c.309-.697 1.406-.25 1.097.448a14.708 14.708 0 005.522 18.319c.642.412-.085 1.348-.723.938zm-5.927 31.978a30.615 30.615 0 0018.74-12.107c.446-.62 1.384.104.94.723a31.844 31.844 0 01-19.527 12.56c-.75.15-.897-1.027-.153-1.176zm27.624-58.816a8.991 8.991 0 008.182 2.414c.747-.16.895 1.017.153 1.175a10.075 10.075 0 01-9.058-2.65.612.612 0 01-.108-.832.595.595 0 01.83-.107z"/><path fill="#ffb6b6" d="M434.574 200.328a9.452 9.452 0 01.215 1.472l38.57 22.252 9.376-5.397 9.995 13.084-15.669 11.168a7.183 7.183 0 01-8.618-.21l-39.773-31.378a9.425 9.425 0 115.904-10.991z"/><path fill="#3f3d56" d="M473.895 221.595a4.036 4.036 0 012.015-2.694l17.808-9.703a11.221 11.221 0 0113.566 17.878l-14.272 14.5a4.04 4.04 0 01-6.105-.402l-12.288-16.293a4.036 4.036 0 01-.724-3.286z"/><path fill="#2f2e41" d="M504.904 165.976c2.562-8.166 8.389-15.655 16.446-18.415 8.059-2.76 19.858 1.445 25.916 7.482 11.081 11.044 11.422 24.564 3.809 36.553-1.514-.08-6.74-.14-8.272-.197l-2.168-7.226v7.155c-11.963-.37-24.418-.138-36.879.1-1.117-8.488-1.414-17.287 1.148-25.452z"/><path fill="#ffb6b6" d="M502.281 507.932H491.37l-5.191-42.087 16.104.001-.002 42.086zm67.247 0h-10.911l-5.191-42.087 16.104.001-.002 42.086zm-31.86-258.49l2.472 6.428-.494 6.429-48.387 16.759 2.401-28.132 5.439-6.428 38.569 4.944z"/><circle cx="522.369" cy="174.315" r="17.282" fill="#ffb7b7"/><path fill="#2f2e41" d="M548.501 278.938v10.983s12.857 16.707 5.934 29.563l19.835 171.092h-20.767l-34.67-144.39-14.777 141.423h-17.8l-2.123-112.477a239.052 239.052 0 0114.567-86.799zM510.494 151.81a21.706 21.706 0 0133.002 18.944c-9.66.444-19.808.56-30.098.58l-2.432-5.952-1.433 5.956q-4.703 0-9.424-.012a22.163 22.163 0 0110.385-19.516zm-3.332 376.839h-7.743l-1.382-7.31-3.54 7.31h-20.534a4.616 4.616 0 01-2.623-8.415l16.399-11.325v-7.39l17.248 1.03zm68.236 0h-7.742l-1.382-7.31-3.54 7.31H542.2a4.616 4.616 0 01-2.623-8.415l16.399-11.325v-7.39l17.248 1.03z"/><path fill="#3f3d56" d="M556.364 314.163a134.706 134.706 0 00-2.937-39.38c-3.67-16.294-8.335-37.028-8.425-37.564a.2.2 0 01-.003-.032l-1.422-30.37a.351.351 0 00-.339-.335l-9.833-.33a.351.351 0 01-.339-.351 5.578 5.578 0 00-5.578-5.579h-19.64a5.223 5.223 0 00-5.18 4.572.347.347 0 01-.352.312l-7.642-.257a.351.351 0 00-.347.246l-.532 1.689a176.947 176.947 0 00-6.273 76.85c.925 6.856.505 17.166.155 22.91a4.271 4.271 0 004.02 4.527c14.208.817 54.434 20.28 64.064 10.988.023-.022.28-3.45.603-7.896z"/><path fill="#ffb6b6" d="M477.575 200.328a9.452 9.452 0 01.215 1.472l38.571 22.252 9.375-5.397 9.995 13.084-15.669 11.168a7.183 7.183 0 01-8.618-.21l-39.773-31.378a9.425 9.425 0 115.904-10.991z"/><path fill="#3f3d56" d="M516.897 221.595a4.036 4.036 0 012.015-2.694l17.807-9.703a11.221 11.221 0 0113.567 17.878l-14.273 14.5a4.04 4.04 0 01-6.105-.402L517.62 224.88a4.036 4.036 0 01-.723-3.286z"/><circle cx="45" cy="423.695" r="45" fill="#f0f0f0"/><path fill="#fff" d="M442.653 267.54L116.544 417.263a19.277 19.277 0 01-25.533-9.465L10.536 232.516A19.277 19.277 0 0120 206.982L346.109 57.26a19.277 19.277 0 0125.533 9.465l80.476 175.282a19.277 19.277 0 01-9.465 25.533z"/><path fill="#e4e4e4" d="M25.425 218.796a6.262 6.262 0 00-3.075 8.295l80.475 175.283a6.262 6.262 0 008.295 3.074l326.108-149.722a6.262 6.262 0 003.075-8.295L359.828 72.149a6.262 6.262 0 00-8.295-3.075z"/><path fill="#cacaca" d="M442.653 267.54L116.544 417.263a19.277 19.277 0 01-25.533-9.465L10.536 232.516A19.277 19.277 0 0120 206.982L346.109 57.26a19.277 19.277 0 0125.533 9.465l80.476 175.282a19.277 19.277 0 01-9.465 25.533zM20.835 208.8a17.275 17.275 0 00-8.482 22.881L92.83 406.963a17.275 17.275 0 0022.88 8.482l326.11-149.722a17.275 17.275 0 008.481-22.882L369.824 67.56a17.275 17.275 0 00-22.88-8.482z"/><path fill="#cacaca" d="M361.166 188L102.093 306.945a11.147 11.147 0 01-12.605-2.342l-75.8-77.733a11.124 11.124 0 013.309-17.868L349.015 55.947a11.125 11.125 0 0115.705 8.82l.045-.001 2.88 112.841A11.11 11.11 0 01361.166 188zM349.864 57.758l-332.03 153.06a9.123 9.123 0 00-2.714 14.656l75.8 77.732a9.142 9.142 0 0010.338 1.922l259.074-118.946a9.113 9.113 0 005.313-8.524l-2.854-111.841.4-.01-.4.01a9.124 9.124 0 00-12.927-8.059z"/><path fill="#fff" d="M198.704 348.913l-80.717 37.058a4.907 4.907 0 11-4.094-8.918l80.716-37.059a4.907 4.907 0 014.095 8.919z"/><path fill="#cacaca" d="M257.754 234.378a25.22 25.22 0 11-45.84 21.046"/><path fill="#fff" d="M439.745 505.953H80.908a19.277 19.277 0 01-19.255-19.255V293.824a19.277 19.277 0 0119.255-19.255h358.837A19.277 19.277 0 01459 293.824v192.874a19.277 19.277 0 01-19.255 19.255z"/><path fill="#00bfa6" d="M80.908 287.569a6.262 6.262 0 00-6.255 6.255v192.874a6.262 6.262 0 006.255 6.255h358.837a6.262 6.262 0 006.255-6.255V293.824a6.262 6.262 0 00-6.255-6.255z"/><path fill="#3f3d56" d="M439.745 505.953H80.908a19.277 19.277 0 01-19.255-19.255V293.824a19.277 19.277 0 0119.255-19.255h358.837A19.277 19.277 0 01459 293.824v192.874a19.277 19.277 0 01-19.255 19.255zM80.908 276.57a17.275 17.275 0 00-17.255 17.255v192.874a17.275 17.275 0 0017.255 17.255h358.837A17.275 17.275 0 00457 486.698V293.824a17.275 17.275 0 00-17.255-17.255z"/><path fill="#3f3d56" d="M398.878 399.668H113.804a11.147 11.147 0 01-10.478-7.389L66.874 290.01a11.124 11.124 0 0110.462-14.858l365.597-.562a11.125 11.125 0 0110.593 14.568l.041.018-44.465 103.751a11.11 11.11 0 01-10.224 6.742zm44.071-123.079l-365.61.562a9.124 9.124 0 00-8.581 12.187l36.452 102.27a9.142 9.142 0 008.594 6.06h285.074a9.113 9.113 0 008.386-5.53l44.07-102.832.368.158-.367-.158a9.124 9.124 0 00-8.386-12.717z"/><path fill="#fff" d="M184.093 478.118H95.276a4.907 4.907 0 110-9.814h88.817a4.907 4.907 0 110 9.814z"/><path fill="#3f3d56" d="M285.547 398.668a25.22 25.22 0 01-50.44 0"/><circle cx="126" cy="99.695" r="9" fill="#f0f0f0"/><circle cx="9" cy="315.695" r="9" fill="#f0f0f0"/><circle cx="459" cy="146.695" r="9" fill="#f0f0f0"/><path fill="#cacaca" d="M613.056 528.65H441.762a1.19 1.19 0 010-2.381h171.294a1.19 1.19 0 010 2.381z"/></svg>