<svg viewBox="0 0 532 532"><path fill="#2f2e41" d="M379.19 379.05h-133v-180l115 63 18 117z"/><circle cx="270.76" cy="260.932" r="86.349" fill="#ffb6b6"/><path fill="#ffb6b6" d="M221.19 360.05l-3.901-39.434 77.901-14.566 46 112-80 92-57-112 17-38z"/><path fill="#6c63ff" d="M457.04 451.09a266.818 266.818 0 01-12.56 12.15C395.48 507.68 332.61 532 266 532c-61.41 0-119.64-20.67-166.75-58.72a.503.503 0 01-.08-.07c-1.43-1.15-2.84-2.32-4.25-3.51.25-.72.52-1.43.79-2.13 15.15-39.47 45.07-58.78 63.23-67.23 9-4.19 15.11-5.72 15.11-5.72l21.32-38.4 15.01 28 11.06 20.64 45.38 84.67 39.15-97.48 12.13-30.22 3.11-7.74L336 365.6l14 10.89 28.19 6.22 22.87 5.05 31.06 6.86c12.56 10.23 20.2 29.69 24.47 53.87.16.86.31 1.73.45 2.6z"/><path fill="#2f2e41" d="M225.34 162.803c10.518-17.668 29.835-29.79 50.32-31.577 20.483-1.787 41.608 6.808 55.026 22.389 7.996 9.284 13.239 20.654 21.033 30.108 16.772 20.346 45.372 32.242 52.699 57.571 3.197 11.053 1.604 22.853-.014 34.245l-4.16 29.292c-1.079 7.6-2.113 15.61.736 22.736 3.343 8.361 11.342 13.837 16.514 21.208 8.801 12.541 8.158 30.903-1.5 42.798-4.187 5.158-9.74 9.049-14.13 14.036s-7.648 11.805-5.809 18.19c3.523 12.232 22.705 15.165 24.808 27.718 1.076 6.418-3.357 12.828-9.165 15.763s-12.646 3.02-19.106 2.235c-24.554-2.985-47.287-18.327-59.242-39.98-11.954-21.653-12.825-49.066-2.268-71.434 8.67-18.371 24.785-34.605 24.61-54.92-.096-11.066-5.172-21.402-10.136-31.294l-30.478-60.737c-5.442-10.845-11.757-22.532-22.96-27.191-8.66-3.6-18.484-2.204-27.745-.732s-19.072 2.907-27.756-.631-15.247-14.05-11.109-22.465"/><path fill="#2f2e41" d="M240.471 163.726c-16.682-5.492-35.397 3.324-46.69 16.774-11.295 13.45-16.774 30.706-21.993 47.476l-8.968 28.818-8.437 27.108c-3.308 10.629-6.643 21.92-3.928 32.716 1.962 7.805 7.012 14.891 7.121 22.938.114 8.406-5.15 15.785-9.763 22.813-4.614 7.027-8.944 15.377-6.746 23.49 3.343 12.343 20.502 19.127 19.561 31.878-.314 4.256-2.775 8.192-2.73 12.46.057 5.429 4.308 10.12 9.288 12.283 4.98 2.163 10.581 2.28 16.01 2.185a247.95 247.95 0 0049.528-5.893c6.254-1.393 12.614-3.102 17.82-6.838s9.089-9.924 8.411-16.296c-1.055-9.928-11.73-15.561-17.118-23.968-5.291-8.257-5.168-18.72-7.45-28.258-3.136-13.108-10.88-24.552-16.694-36.712-21.857-45.716-14.206-103.987 18.712-142.511 2.91-3.406 6.09-6.833 7.305-11.145 1.214-4.313-.351-9.808-4.57-11.316"/><path fill="#3f3d56" d="M454.09 77.91C403.85 27.67 337.05 0 266 0S128.15 27.67 77.91 77.91C27.67 128.15 0 194.95 0 266c0 64.85 23.05 126.16 65.29 174.57 4.03 4.63 8.24 9.14 12.62 13.52 1.03 1.03 2.07 2.06 3.12 3.06 2.8 2.71 5.65 5.36 8.55 7.93 1.76 1.57 3.54 3.11 5.34 4.62 1.41 1.19 2.82 2.36 4.25 3.51.03.03.05.05.08.07C146.36 511.33 204.59 532 266 532c66.61 0 129.48-24.32 178.48-68.76a266.826 266.826 0 0012.56-12.15c2.7-2.78 5.32-5.61 7.88-8.48C508.29 393.89 532 331.77 532 266c0-71.05-27.67-137.85-77.91-188.09zm10.18 362.21c-2.5 2.84-5.06 5.64-7.68 8.37-4.08 4.25-8.29 8.37-12.64 12.34-1.65 1.52-3.32 3-5.01 4.47a264.103 264.103 0 01-56.56 37.63 260.53 260.53 0 01-22.1 9.67C330.99 523.84 299.2 530 266 530c-32.04 0-62.76-5.74-91.19-16.24-11.67-4.3-22.95-9.41-33.78-15.26a262.345 262.345 0 01-28.66-17.93c-5.73-4.11-11.29-8.44-16.66-13-1.88-1.59-3.74-3.2-5.57-4.85-2.98-2.65-5.9-5.38-8.75-8.18-5.4-5.29-10.56-10.8-15.49-16.53C26.09 391.77 2 331.65 2 266 2 120.43 120.43 2 266 2s264 118.43 264 264c0 66.66-24.83 127.62-65.73 174.12z"/></svg>